RobotoSerifText-SuperCondItalic 06r.ufo
<glyph name="dollar" format="2">
  <advance width="561"/>
  <unicode hex="0024"/>
  <guideline x="398" y="653" angle="80" identifier="LaMyFJVnbZ"/>
  <guideline x="295" y="646" angle="80" identifier="Zkxr4XCuwj"/>
  <guideline x="525" y="526" angle="80" identifier="7efUt0Gpfu"/>
  <outline>
    <contour>
      <point x="158" y="-120" type="line"/>
      <point x="258" y="-120" type="line"/>
      <point x="289" y="55" type="line"/>
      <point x="276" y="79" type="line"/>
      <point x="374" y="633" type="line"/>
      <point x="397" y="653" type="line"/>
      <point x="421" y="790" type="line"/>
      <point x="320" y="790" type="line"/>
      <point x="294" y="646" type="line"/>
      <point x="304" y="628" type="line"/>
      <point x="208" y="79" type="line"/>
      <point x="189" y="57" type="line"/>
    </contour>
    <contour>
      <point x="247" y="12" type="curve" smooth="yes"/>
      <point x="415" y="12"/>
      <point x="500" y="102"/>
      <point x="500" y="253" type="curve" smooth="yes"/>
      <point x="500" y="361"/>
      <point x="443" y="409"/>
      <point x="344" y="453" type="curve" smooth="yes"/>
      <point x="278" y="484"/>
      <point x="234" y="496"/>
      <point x="234" y="536" type="curve" smooth="yes"/>
      <point x="234.0" y="581.0"/>
      <point x="257" y="611.0"/>
      <point x="333" y="611.0" type="curve" smooth="yes"/>
      <point x="401" y="611.0"/>
      <point x="430" y="601"/>
      <point x="459" y="561" type="curve"/>
      <point x="467" y="589"/>
      <point x="459" y="627"/>
      <point x="427" y="628" type="curve"/>
      <point x="409" y="526" type="line"/>
      <point x="528" y="526" type="line"/>
      <point x="550" y="644" type="line"/>
      <point x="510" y="673"/>
      <point x="444.0" y="698.0"/>
      <point x="338" y="698" type="curve" smooth="yes"/>
      <point x="174" y="698"/>
      <point x="94" y="609"/>
      <point x="94" y="474" type="curve" smooth="yes"/>
      <point x="94" y="371"/>
      <point x="150" y="322"/>
      <point x="235" y="280" type="curve" smooth="yes"/>
      <point x="314" y="241"/>
      <point x="351" y="223"/>
      <point x="351" y="181" type="curve" smooth="yes"/>
      <point x="351" y="125"/>
      <point x="318" y="100"/>
      <point x="255" y="100" type="curve" smooth="yes"/>
      <point x="169.0" y="100.0"/>
      <point x="144.0" y="118.0"/>
      <point x="118" y="167" type="curve"/>
      <point x="107" y="140"/>
      <point x="118" y="99"/>
      <point x="146" y="94" type="curve"/>
      <point x="167" y="213" type="line"/>
      <point x="39" y="213" type="line"/>
      <point x="17" y="88" type="line"/>
      <point x="54.0" y="60.0"/>
      <point x="115.0" y="12.0"/>
    </contour>
  </outline>
</glyph>
<glyph name="period" format="2">
  <advance width="293"/>
  <unicode hex="002E"/>
  <outline>
    <contour>
      <point x="119" y="186" type="curve" smooth="yes"/>
      <point x="53.0" y="186.0"/>
      <point x="12" y="143"/>
      <point x="12" y="87" type="curve" smooth="yes"/>
      <point x="12" y="29"/>
      <point x="49" y="-8"/>
      <point x="115" y="-8" type="curve" smooth="yes"/>
      <point x="181.0" y="-8.0"/>
      <point x="222" y="35"/>
      <point x="222" y="91" type="curve" smooth="yes"/>
      <point x="222" y="149"/>
      <point x="185" y="186"/>
    </contour>
  </outline>
</glyph>
<glyph name="two" format="2">
  <advance width="540"/>
  <unicode hex="0032"/>
  <outline>
    <contour>
      <point x="2" y="0" type="line"/>
      <point x="29" y="154" type="line"/>
      <point x="265" y="279"/>
      <point x="305" y="355"/>
      <point x="305" y="481" type="curve" smooth="yes"/>
      <point x="305" y="517"/>
      <point x="294" y="528"/>
      <point x="275" y="528" type="curve" smooth="yes"/>
      <point x="254" y="528"/>
      <point x="241" y="518"/>
      <point x="233" y="501" type="curve"/>
      <point x="225" y="515"/>
      <point x="236" y="538"/>
      <point x="260" y="539" type="curve"/>
      <point x="238" y="413" type="line"/>
      <point x="79" y="413" type="line"/>
      <point x="106" y="567" type="line"/>
      <point x="160" y="596"/>
      <point x="234" y="618"/>
      <point x="302" y="618" type="curve" smooth="yes"/>
      <point x="434" y="618"/>
      <point x="510" y="567"/>
      <point x="510" y="458" type="curve" smooth="yes"/>
      <point x="510" y="303"/>
      <point x="395" y="241"/>
      <point x="117" y="126" type="curve"/>
      <point x="114" y="136" type="line"/>
      <point x="281" y="136" type="line" smooth="yes"/>
      <point x="354" y="136"/>
      <point x="369" y="145"/>
      <point x="378" y="176" type="curve" smooth="yes"/>
      <point x="392" y="225" type="line"/>
      <point x="475" y="225" type="line"/>
      <point x="435" y="0" type="line"/>
    </contour>
  </outline>
</glyph>
<glyph name="three" format="2">
  <advance width="541"/>
  <unicode hex="0033"/>
  <outline>
    <contour>
      <point x="230" y="-90" type="curve" smooth="yes"/>
      <point x="90" y="-90"/>
      <point x="32" y="-17"/>
      <point x="20" y="91" type="curve"/>
      <point x="111" y="129" type="line"/>
      <point x="120" y="62"/>
      <point x="139" y="4"/>
      <point x="195" y="4" type="curve" smooth="yes"/>
      <point x="252" y="4"/>
      <point x="268" y="63"/>
      <point x="268" y="141" type="curve" smooth="yes"/>
      <point x="268" y="207"/>
      <point x="246" y="240"/>
      <point x="199" y="240" type="curve" smooth="yes"/>
      <point x="168" y="240" type="line"/>
      <point x="183" y="327" type="line"/>
      <point x="236" y="327" type="line" smooth="yes"/>
      <point x="298" y="327"/>
      <point x="318" y="390"/>
      <point x="318" y="469" type="curve" smooth="yes"/>
      <point x="318" y="513"/>
      <point x="304" y="528"/>
      <point x="287" y="528" type="curve" smooth="yes"/>
      <point x="268" y="528"/>
      <point x="253" y="519"/>
      <point x="245" y="501" type="curve"/>
      <point x="235" y="503"/>
      <point x="241" y="542"/>
      <point x="271" y="543" type="curve"/>
      <point x="250" y="423" type="line"/>
      <point x="93" y="423" type="line"/>
      <point x="118" y="565" type="line"/>
      <point x="164" y="598"/>
      <point x="237" y="618"/>
      <point x="313" y="618" type="curve" smooth="yes"/>
      <point x="441" y="618"/>
      <point x="515" y="562"/>
      <point x="515" y="458" type="curve" smooth="yes"/>
      <point x="515" y="342"/>
      <point x="423" y="278"/>
      <point x="278" y="278" type="curve"/>
      <point x="352" y="294" type="line"/>
      <point x="345" y="274" type="line"/>
      <point x="280" y="295" type="line"/>
      <point x="421" y="276"/>
      <point x="477" y="204"/>
      <point x="477" y="114" type="curve" smooth="yes"/>
      <point x="477" y="-22"/>
      <point x="371" y="-90"/>
    </contour>
  </outline>
</glyph>
<glyph name="four" format="2">
  <advance width="541"/>
  <unicode hex="0034"/>
  <guideline x="35" y="134" angle="80" identifier="qmNG5IccDx"/>
  <guideline x="81" y="143" angle="56.89316277894672" identifier="ERZDOkH8Nt"/>
  <outline>
    <contour>
      <point x="10" y="77" type="line"/>
      <point x="475" y="77" type="line"/>
      <point x="497" y="206" type="line"/>
      <point x="73" y="206" type="line"/>
      <point x="71" y="143" type="line"/>
      <point x="322" y="527" type="line"/>
      <point x="344" y="609" type="line"/>
      <point x="288" y="609" type="line"/>
      <point x="35" y="221" type="line"/>
    </contour>
    <contour>
      <point x="402" y="-77" type="line"/>
      <point x="523" y="609" type="line"/>
      <point x="324" y="609" type="line"/>
      <point x="284" y="520" type="line"/>
      <point x="180" y="-77" type="line"/>
    </contour>
  </outline>
</glyph>
<glyph name="five" format="2">
  <advance width="541"/>
  <unicode hex="0035"/>
  <guideline x="45" y="207" angle="80" identifier="sSuTj1Rb4w"/>
  <guideline x="156" y="275" angle="80" identifier="mGG0fn35tL"/>
  <outline>
    <contour>
      <point x="232" y="-90" type="curve" smooth="yes"/>
      <point x="383" y="-90"/>
      <point x="484" y="-1"/>
      <point x="484" y="165" type="curve" smooth="yes"/>
      <point x="484" y="282"/>
      <point x="420" y="366"/>
      <point x="311" y="366" type="curve" smooth="yes"/>
      <point x="228" y="366"/>
      <point x="191" y="326"/>
      <point x="160" y="270" type="curve"/>
      <point x="186" y="276" type="line"/>
      <point x="242" y="589" type="line"/>
      <point x="204" y="461" type="line"/>
      <point x="469" y="461" type="line"/>
      <point x="507" y="609" type="line"/>
      <point x="151" y="609" type="line"/>
      <point x="80" y="207" type="line"/>
      <point x="167" y="207" type="line"/>
      <point x="179" y="252"/>
      <point x="197" y="278"/>
      <point x="229" y="278" type="curve" smooth="yes"/>
      <point x="263" y="278"/>
      <point x="276" y="247"/>
      <point x="276" y="194" type="curve" smooth="yes"/>
      <point x="276" y="122"/>
      <point x="261" y="4"/>
      <point x="195" y="4" type="curve" smooth="yes"/>
      <point x="137" y="4"/>
      <point x="115" y="60"/>
      <point x="107" y="129" type="curve"/>
      <point x="16" y="91" type="line"/>
      <point x="28" y="-17"/>
      <point x="93" y="-90"/>
    </contour>
  </outline>
</glyph>
<glyph name="eight" format="2">
  <advance width="541"/>
  <unicode hex="0038"/>
  <outline>
    <contour>
      <point x="326" y="718" type="curve" smooth="yes"/>
      <point x="191" y="718"/>
      <point x="102" y="644"/>
      <point x="102" y="531" type="curve" smooth="yes"/>
      <point x="102" y="456"/>
      <point x="143" y="390"/>
      <point x="222" y="368" type="curve"/>
      <point x="198" y="397" type="line"/>
      <point x="191" y="363" type="line"/>
      <point x="226" y="393" type="line"/>
      <point x="91" y="377"/>
      <point x="21" y="294"/>
      <point x="21" y="185" type="curve" smooth="yes"/>
      <point x="21" y="71"/>
      <point x="106" y="-8"/>
      <point x="249" y="-8" type="curve" smooth="yes"/>
      <point x="405" y="-8"/>
      <point x="503" y="71"/>
      <point x="503" y="213" type="curve" smooth="yes"/>
      <point x="503" y="303"/>
      <point x="450" y="369"/>
      <point x="349" y="383" type="curve"/>
      <point x="376" y="357" type="line"/>
      <point x="382" y="391" type="line"/>
      <point x="347" y="364" type="line"/>
      <point x="459" y="376"/>
      <point x="526" y="441"/>
      <point x="526" y="548" type="curve" smooth="yes"/>
      <point x="526" y="654"/>
      <point x="458" y="718"/>
    </contour>
    <contour>
      <point x="241" y="83" type="curve" smooth="yes"/>
      <point x="225" y="83"/>
      <point x="217" y="93"/>
      <point x="217" y="124" type="curve" smooth="yes"/>
      <point x="217" y="142"/>
      <point x="220" y="168"/>
      <point x="226" y="204" type="curve" smooth="yes"/>
      <point x="247" y="327"/>
      <point x="254" y="333"/>
      <point x="277" y="333" type="curve" smooth="yes"/>
      <point x="291" y="333"/>
      <point x="301" y="329"/>
      <point x="301" y="297" type="curve" smooth="yes"/>
      <point x="301" y="277"/>
      <point x="297" y="247"/>
      <point x="290" y="202" type="curve" smooth="yes"/>
      <point x="272" y="95"/>
      <point x="262" y="83"/>
    </contour>
    <contour>
      <point x="294" y="419" type="curve" smooth="yes"/>
      <point x="280" y="419"/>
      <point x="271" y="423"/>
      <point x="271" y="453" type="curve" smooth="yes"/>
      <point x="271" y="469"/>
      <point x="273" y="492"/>
      <point x="279" y="525" type="curve" smooth="yes"/>
      <point x="295" y="622"/>
      <point x="305" y="627"/>
      <point x="325" y="627" type="curve" smooth="yes"/>
      <point x="340" y="627"/>
      <point x="349" y="620"/>
      <point x="349" y="595" type="curve" smooth="yes"/>
      <point x="349" y="579"/>
      <point x="347" y="557"/>
      <point x="341" y="523" type="curve" smooth="yes"/>
      <point x="324" y="426"/>
      <point x="316" y="419"/>
    </contour>
  </outline>
</glyph>
<glyph name="H" format="2">
  <advance width="667"/>
  <unicode hex="0048"/>
  <guideline x="21" y="103" angle="80" identifier="5tahKq9cw5"/>
  <anchor x="333.0" y="741" name="top"/>
  <anchor x="333.0" y="0" name="bottom"/>
  <outline>
    <contour>
      <point x="142" y="405" type="line"/>
      <point x="125" y="322" type="line"/>
      <point x="484" y="322" type="line"/>
      <point x="498" y="405" type="line"/>
    </contour>
    <contour>
      <point x="679" y="607" type="line" smooth="yes"/>
      <point x="682" y="626"/>
      <point x="693" y="633"/>
      <point x="709" y="633" type="curve"/>
      <point x="723" y="633" type="line"/>
      <point x="736" y="710" type="line"/>
      <point x="423" y="710" type="line"/>
      <point x="410" y="633" type="line"/>
      <point x="417" y="633" type="line" smooth="yes"/>
      <point x="431" y="633"/>
      <point x="446" y="630"/>
      <point x="445" y="623" type="curve" smooth="yes"/>
      <point x="350" y="87" type="line" smooth="yes"/>
      <point x="349" y="80"/>
      <point x="333" y="77"/>
      <point x="318" y="77" type="curve" smooth="yes"/>
      <point x="312" y="77" type="line"/>
      <point x="298" y="0" type="line"/>
      <point x="611" y="0" type="line"/>
      <point x="625" y="77" type="line"/>
      <point x="617" y="77" type="line" smooth="yes"/>
      <point x="592" y="77"/>
      <point x="587" y="84"/>
      <point x="592" y="113" type="curve" smooth="yes"/>
    </contour>
    <contour>
      <point x="21" y="103" type="line" smooth="yes"/>
      <point x="18" y="84"/>
      <point x="7" y="77"/>
      <point x="-9" y="77" type="curve" smooth="yes"/>
      <point x="-20" y="77" type="line"/>
      <point x="-34" y="0" type="line"/>
      <point x="275" y="0" type="line"/>
      <point x="289" y="77" type="line"/>
      <point x="282" y="77" type="line" smooth="yes"/>
      <point x="269" y="77"/>
      <point x="255" y="80"/>
      <point x="256" y="87" type="curve" smooth="yes"/>
      <point x="350" y="623" type="line" smooth="yes"/>
      <point x="351" y="630"/>
      <point x="366" y="633"/>
      <point x="380" y="633" type="curve" smooth="yes"/>
      <point x="387" y="633" type="line"/>
      <point x="400" y="710" type="line"/>
      <point x="91" y="710" type="line"/>
      <point x="78" y="633" type="line"/>
      <point x="84" y="633" type="line" smooth="yes"/>
      <point x="101" y="633"/>
      <point x="113" y="626"/>
      <point x="108" y="597" type="curve" smooth="yes"/>
    </contour>
  </outline>
</glyph>
<glyph name="K" format="2">
  <advance width="700"/>
  <unicode hex="004B"/>
  <anchor x="366" y="741" name="top"/>
  <anchor x="366" y="0" name="bottom"/>
  <outline>
    <contour>
      <point x="-34" y="0" type="line"/>
      <point x="275" y="0" type="line"/>
      <point x="289" y="77" type="line"/>
      <point x="277" y="77" type="line" smooth="yes"/>
      <point x="265" y="77"/>
      <point x="255" y="80"/>
      <point x="256" y="87" type="curve" smooth="yes"/>
      <point x="349" y="619" type="line" smooth="yes"/>
      <point x="351" y="630"/>
      <point x="364" y="633"/>
      <point x="398" y="633" type="curve" smooth="yes"/>
      <point x="412" y="633" type="line"/>
      <point x="426" y="710" type="line"/>
      <point x="91" y="710" type="line"/>
      <point x="78" y="633" type="line"/>
      <point x="84" y="633" type="line" smooth="yes"/>
      <point x="101" y="633"/>
      <point x="113" y="626"/>
      <point x="108" y="597" type="curve" smooth="yes"/>
      <point x="21" y="103" type="line" smooth="yes"/>
      <point x="18" y="84"/>
      <point x="7.0" y="77.0"/>
      <point x="-9" y="77.0" type="curve" smooth="yes"/>
      <point x="-20" y="77" type="line"/>
    </contour>
    <contour>
      <point x="308" y="0.0" type="line"/>
      <point x="644" y="0.0" type="line"/>
      <point x="658" y="77.0" type="line"/>
      <point x="648" y="77.0" type="line" smooth="yes"/>
      <point x="632.9629629629629" y="77.0"/>
      <point x="625" y="83"/>
      <point x="619" y="110.0" type="curve" smooth="yes"/>
      <point x="529" y="505.0" type="line"/>
      <point x="512" y="458.0" type="line"/>
      <point x="624" y="596.0" type="line" smooth="yes"/>
      <point x="650" y="628"/>
      <point x="662" y="633"/>
      <point x="692" y="633.0" type="curve" smooth="yes"/>
      <point x="713" y="633.0" type="line"/>
      <point x="726" y="710.0" type="line"/>
      <point x="500" y="710.0" type="line"/>
      <point x="487" y="633.0" type="line"/>
      <point x="495" y="633.0" type="line" smooth="yes"/>
      <point x="514.8846153846154" y="633.0"/>
      <point x="543.9861359371154" y="631.9514757799037"/>
      <point x="542" y="625.0" type="curve"/>
      <point x="328" y="368.0" type="line"/>
      <point x="322" y="335.0" type="line"/>
      <point x="358" y="87.0" type="line"/>
      <point x="357" y="80.0"/>
      <point x="342" y="77"/>
      <point x="330" y="77.0" type="curve" smooth="yes"/>
      <point x="322" y="77.0" type="line"/>
    </contour>
  </outline>
</glyph>
<glyph name="M" format="2">
  <advance width="799"/>
  <unicode hex="004D"/>
  <guideline x="113" y="93" angle="80" identifier="kdYv5kDblh"/>
  <guideline x="765.0" y="355.0" angle="80.61448173995693" identifier="hGniQjk0M4"/>
  <guideline x="845.0" y="633.0" angle="0" identifier="Cr43d7DYX1"/>
  <guideline x="851" y="633" angle="80" identifier="74vE9shEiJ"/>
  <anchor x="392.0" y="0" name="bottom"/>
  <outline>
    <contour>
      <point x="841" y="633" type="curve"/>
      <point x="855" y="633" type="line"/>
      <point x="868" y="710" type="line"/>
      <point x="528" y="710" type="line"/>
      <point x="378" y="293" type="line"/>
      <point x="427" y="293" type="line"/>
      <point x="446" y="710" type="line"/>
      <point x="91" y="710" type="line"/>
      <point x="78" y="633" type="line"/>
      <point x="86" y="633" type="line" smooth="yes"/>
      <point x="110" y="633"/>
      <point x="115" y="626"/>
      <point x="110" y="597" type="curve" smooth="yes"/>
      <point x="23" y="103" type="line" smooth="yes"/>
      <point x="20" y="84"/>
      <point x="9" y="77"/>
      <point x="-7" y="77" type="curve" smooth="yes"/>
      <point x="-16" y="77" type="line"/>
      <point x="-30" y="0" type="line"/>
      <point x="149" y="0" type="line"/>
      <point x="163" y="77" type="line"/>
      <point x="156" y="77" type="line" smooth="yes"/>
      <point x="131" y="77"/>
      <point x="118" y="84"/>
      <point x="120" y="93" type="curve" smooth="yes"/>
      <point x="226" y="694" type="line"/>
      <point x="203" y="687" type="line"/>
      <point x="226" y="-2" type="line"/>
      <point x="339" y="-2" type="line"/>
      <point x="609" y="686" type="line"/>
      <point x="588" y="686" type="line"/>
      <point x="482" y="87" type="line" smooth="yes"/>
      <point x="481" y="80"/>
      <point x="466" y="77"/>
      <point x="452" y="77" type="curve" smooth="yes"/>
      <point x="446" y="77" type="line"/>
      <point x="432" y="0" type="line"/>
      <point x="743" y="0" type="line"/>
      <point x="757" y="77" type="line"/>
      <point x="749" y="77" type="line"/>
      <point x="730" y="77"/>
      <point x="724" y="84"/>
      <point x="729" y="113" type="curve" smooth="yes"/>
      <point x="811" y="607" type="line"/>
      <point x="814" y="626"/>
      <point x="825" y="633"/>
    </contour>
  </outline>
</glyph>
<glyph name="P" format="2">
  <advance width="583"/>
  <unicode hex="0050"/>
  <outline>
    <contour>
      <point x="393" y="710" type="curve" smooth="yes" identifier="Aq0PI0OWC0"/>
      <point x="91" y="710" type="line" identifier="4GiJT37TSl"/>
      <point x="78" y="633" type="line" identifier="oLyHGJSqcp"/>
      <point x="84" y="633" type="line" smooth="yes" identifier="Z3xnUcUyD8"/>
      <point x="101" y="633" identifier="d8WVhEHYo1"/>
      <point x="113" y="626" identifier="Vozby7BbqE"/>
      <point x="108" y="597" type="curve" smooth="yes" identifier="C33szHxQFh"/>
      <point x="21" y="103" type="line" smooth="yes" identifier="o1BcuDhvbX"/>
      <point x="18" y="84" identifier="pgQIjAgviO"/>
      <point x="7" y="77" identifier="FEbUAsdBLN"/>
      <point x="-9" y="77" type="curve" smooth="yes" identifier="kPoaSoko0Z"/>
      <point x="-20" y="77" type="line" identifier="TEKBaB80gr"/>
      <point x="-34" y="0" type="line" identifier="vDYNLUrSbB"/>
      <point x="279" y="0" type="line" identifier="HX2XVZD49K"/>
      <point x="291" y="77" type="line" identifier="pVNw7drSVF"/>
      <point x="279" y="77" type="line" smooth="yes" identifier="31T2csJA7b"/>
      <point x="265" y="77" identifier="72fdxxBrC7"/>
      <point x="255" y="80" identifier="cPDMxOMAG4"/>
      <point x="256" y="87" type="curve" smooth="yes" identifier="Hi4ONH6RnO"/>
      <point x="288" y="268" type="line" identifier="XGLnHdNsxz"/>
      <point x="370" y="268" type="line" smooth="yes" identifier="tVqR8Q06Qu"/>
      <point x="525" y="268" identifier="idQkDxC8t9"/>
      <point x="632" y="371" identifier="KQnW2ETefa"/>
      <point x="632" y="535" type="curve" smooth="yes" identifier="U7xSndjkDU"/>
      <point x="632" y="658" identifier="OFI1KXglr7"/>
      <point x="542" y="710" identifier="e95e6T5GHB"/>
    </contour>
    <contour>
      <point x="368" y="625" type="line" smooth="yes" identifier="mD4Pxyzgid"/>
      <point x="394" y="625" identifier="r3OglXWOEL"/>
      <point x="412" y="627" identifier="0UqJApTVZn"/>
      <point x="412" y="555" type="curve" smooth="yes" identifier="lXtSMWkPbD"/>
      <point x="412" y="458" identifier="vPf5WWmBUV"/>
      <point x="380" y="356.0" identifier="aUhKgAHiwv"/>
      <point x="325" y="356" type="curve" smooth="yes" identifier="aqiwhjSJUv"/>
      <point x="304" y="356" type="line" identifier="bqniKcfaOe"/>
      <point x="351" y="625" type="line" identifier="FwMjcVQzHG"/>
    </contour>
  </outline>
</glyph>
<glyph name="Q" format="2">
  <advance width="673"/>
  <unicode hex="0051"/>
  <outline>
    <contour>
      <point x="403" y="-229" type="curve" smooth="yes"/>
      <point x="460" y="-229"/>
      <point x="510" y="-217"/>
      <point x="534" y="-204" type="curve"/>
      <point x="563" y="-42" type="line"/>
      <point x="558" y="-46"/>
      <point x="494" y="-71"/>
      <point x="422" y="-71" type="curve" smooth="yes"/>
      <point x="359" y="-71"/>
      <point x="337" y="-57"/>
      <point x="337" y="-14" type="curve" smooth="yes"/>
      <point x="337" y="-6"/>
      <point x="337" y="3"/>
      <point x="340" y="14" type="curve"/>
      <point x="253" y="13" type="line"/>
      <point x="243" y="-14"/>
      <point x="232" y="-46"/>
      <point x="232" y="-75" type="curve" smooth="yes"/>
      <point x="232" y="-181"/>
      <point x="307" y="-229"/>
    </contour>
    <contour>
      <point x="311" y="85" type="curve" smooth="yes" identifier="Lb8WSGhODz"/>
      <point x="283" y="85" identifier="D9hHBHCIN1"/>
      <point x="268" y="105" identifier="5LNDvrjdPM"/>
      <point x="268" y="167" type="curve" identifier="mL3YqRQtCR"/>
      <point x="268" y="235" identifier="H4JfI13PD8"/>
      <point x="290" y="368" identifier="jghDvJkDsg"/>
      <point x="308" y="460" type="curve" smooth="yes" identifier="1nV6aK9Hra"/>
      <point x="340" y="607" identifier="L5Mr53xIDw"/>
      <point x="365" y="626" identifier="sOQIaO1Wd9"/>
      <point x="391" y="626" type="curve" smooth="yes" identifier="kkbJWNbQsS"/>
      <point x="419" y="626" identifier="v2PHJCDCi6"/>
      <point x="434" y="606" identifier="snop6P7v0J"/>
      <point x="434" y="544" type="curve" identifier="7lmrpMAMnN"/>
      <point x="434" y="476" identifier="5X9jK0CmmD"/>
      <point x="412" y="343" identifier="W4nQttefrR"/>
      <point x="394" y="251" type="curve" smooth="yes" identifier="5LC6Y6bkJW"/>
      <point x="362" y="104" identifier="xA1InEGMb6"/>
      <point x="337" y="85" identifier="rAw6EUV6vo"/>
    </contour>
    <contour>
      <point x="314" y="-10" type="curve" smooth="yes"/>
      <point x="561" y="-10"/>
      <point x="672" y="191"/>
      <point x="672" y="419" type="curve" smooth="yes"/>
      <point x="672" y="604"/>
      <point x="569" y="720"/>
      <point x="394" y="720" type="curve" smooth="yes"/>
      <point x="147" y="720"/>
      <point x="36" y="519"/>
      <point x="36" y="291" type="curve" smooth="yes"/>
      <point x="36" y="106"/>
      <point x="139" y="-10"/>
    </contour>
  </outline>
</glyph>
<glyph name="R" format="2">
  <advance width="639"/>
  <unicode hex="0052"/>
  <anchor x="372.0" y="741" name="top"/>
  <anchor x="372.0" y="0" name="bottom"/>
  <outline>
    <contour>
      <point x="312" y="323" type="line"/>
      <point x="349" y="0" type="line"/>
      <point x="593" y="0" type="line"/>
      <point x="605" y="77" type="line"/>
      <point x="599" y="77" type="line" smooth="yes"/>
      <point x="585" y="77"/>
      <point x="578" y="83"/>
      <point x="574" y="106" type="curve" smooth="yes"/>
      <point x="534" y="353" type="line"/>
    </contour>
    <contour>
      <point x="-34" y="0" type="move"/>
      <point x="272" y="0" type="line"/>
      <point x="286" y="77" type="line"/>
      <point x="280" y="77" type="line" smooth="yes"/>
      <point x="264" y="77"/>
      <point x="255" y="81"/>
      <point x="256" y="87" type="curve" smooth="yes"/>
      <point x="353" y="640" type="line"/>
      <point x="319" y="625" type="line"/>
      <point x="368" y="625" type="line" smooth="yes"/>
      <point x="394" y="625"/>
      <point x="411" y="602"/>
      <point x="411" y="561" type="curve" smooth="yes"/>
      <point x="411" y="447"/>
      <point x="378" y="364.0"/>
      <point x="318" y="364.0" type="curve" smooth="yes"/>
      <point x="207" y="364" type="line"/>
      <point x="193" y="281" type="line"/>
      <point x="348" y="281" type="line"/>
      <point x="349" y="286"/>
      <point x="414" y="300"/>
      <point x="423" y="302" type="curve"/>
      <point x="562" y="302"/>
      <point x="629" y="397"/>
      <point x="629.0" y="541" type="curve" smooth="yes"/>
      <point x="629.0" y="648.0"/>
      <point x="552" y="710"/>
      <point x="414" y="710" type="curve" smooth="yes"/>
      <point x="91" y="710" type="line"/>
      <point x="78" y="633" type="line"/>
      <point x="84" y="633" type="line" smooth="yes"/>
      <point x="101" y="633"/>
      <point x="113" y="626"/>
      <point x="108" y="597" type="curve" smooth="yes"/>
      <point x="21" y="103" type="line" smooth="yes"/>
      <point x="18" y="84"/>
      <point x="7" y="77"/>
      <point x="-9" y="77" type="curve" smooth="yes"/>
      <point x="-20" y="77" type="line"/>
      <point x="-34" y="0" type="line"/>
    </contour>
  </outline>
</glyph>
<glyph name="W" format="2">
  <advance width="862"/>
  <unicode hex="0057"/>
  <guideline x="59" y="633.0" angle="80" identifier="qmqw031UuV"/>
  <anchor x="434" y="741" name="top"/>
  <outline>
    <contour>
      <point x="88" y="710.0" type="line"/>
      <point x="75" y="633.0" type="line"/>
      <point x="80" y="633.0" type="line" smooth="yes"/>
      <point x="97" y="633.0"/>
      <point x="109" y="627.0"/>
      <point x="108" y="604.0" type="curve" smooth="yes"/>
      <point x="98" y="0.0" type="line"/>
      <point x="338" y="0.0" type="line"/>
      <point x="505" y="555.0" type="line"/>
      <point x="489" y="556.0" type="line"/>
      <point x="473" y="0.0" type="line"/>
      <point x="701" y="0.0" type="line"/>
      <point x="874" y="590.0" type="line" smooth="yes"/>
      <point x="884" y="623.0"/>
      <point x="895" y="633.0"/>
      <point x="914" y="633.0" type="curve" smooth="yes"/>
      <point x="919" y="633.0" type="line"/>
      <point x="932" y="710.0" type="line"/>
      <point x="778" y="710.0" type="line"/>
      <point x="764" y="633.0" type="line"/>
      <point x="777" y="633.0" type="line" smooth="yes"/>
      <point x="786" y="633.0"/>
      <point x="797" y="626.0"/>
      <point x="795" y="615.0" type="curve"/>
      <point x="687" y="166.0" type="line"/>
      <point x="699" y="167.0" type="line"/>
      <point x="707" y="710.0" type="line"/>
      <point x="483" y="710.0" type="line"/>
      <point x="321" y="158.0" type="line"/>
      <point x="335" y="163.0" type="line"/>
      <point x="360" y="623.0" type="line"/>
      <point x="362" y="630.0"/>
      <point x="375" y="633.0"/>
      <point x="386" y="633.0" type="curve" smooth="yes"/>
      <point x="397" y="633.0" type="line"/>
      <point x="410" y="710.0" type="line"/>
    </contour>
  </outline>
</glyph>
<glyph name="X" format="2">
  <advance width="605"/>
  <unicode hex="0058"/>
  <guideline x="125" y="78.0" angle="80" identifier="NTeoflpqph"/>
  <guideline x="466" y="634" angle="80" identifier="unrWOfQGfl"/>
  <guideline x="557" y="78.0" angle="80" identifier="xuirFCzTP8"/>
  <outline>
    <contour>
      <point x="86" y="634" type="line"/>
      <point x="90" y="634" type="line" smooth="yes"/>
      <point x="106" y="634"/>
      <point x="108" y="630"/>
      <point x="117" y="602" type="curve" smooth="yes"/>
      <point x="202" y="331" type="line"/>
      <point x="207" y="327" type="line"/>
      <point x="277" y="88" type="line"/>
      <point x="276" y="81"/>
      <point x="262" y="78"/>
      <point x="250" y="78" type="curve" smooth="yes"/>
      <point x="239" y="78" type="line"/>
      <point x="225" y="1" type="line"/>
      <point x="552" y="1" type="line"/>
      <point x="566" y="78" type="line"/>
      <point x="559" y="78" type="line" smooth="yes"/>
      <point x="543" y="78"/>
      <point x="540" y="84"/>
      <point x="530" y="112" type="curve" smooth="yes"/>
      <point x="426" y="412" type="line"/>
      <point x="424" y="415" type="line"/>
      <point x="369" y="624" type="line"/>
      <point x="372" y="631"/>
      <point x="385" y="634"/>
      <point x="397" y="634" type="curve" smooth="yes"/>
      <point x="407" y="634" type="line"/>
      <point x="420" y="711" type="line"/>
      <point x="100" y="711" type="line"/>
    </contour>
    <contour>
      <point x="-38" y="1" type="line"/>
      <point x="117" y="1" type="line"/>
      <point x="131" y="78" type="line"/>
      <point x="122" y="78" type="line" smooth="yes"/>
      <point x="109" y="78"/>
      <point x="95" y="85"/>
      <point x="97" y="96" type="curve"/>
      <point x="272" y="353" type="line"/>
      <point x="216" y="396" type="line"/>
      <point x="29" y="124" type="line" smooth="yes"/>
      <point x="6" y="90"/>
      <point x="-1" y="78"/>
      <point x="-17" y="78" type="curve" smooth="yes"/>
      <point x="-24" y="78" type="line"/>
    </contour>
    <contour>
      <point x="428" y="343" type="line"/>
      <point x="575" y="589" type="line" smooth="yes"/>
      <point x="599" y="630"/>
      <point x="606" y="634"/>
      <point x="625" y="634" type="curve" smooth="yes"/>
      <point x="628" y="634" type="line"/>
      <point x="641" y="711" type="line"/>
      <point x="488" y="711" type="line"/>
      <point x="475" y="634" type="line"/>
      <point x="485" y="634" type="line" smooth="yes"/>
      <point x="497" y="634"/>
      <point x="509" y="627"/>
      <point x="508" y="616" type="curve"/>
      <point x="369" y="383" type="line"/>
    </contour>
  </outline>
</glyph>
<glyph name="a" format="2">
  <advance width="599"/>
  <unicode hex="0061"/>
  <guideline x="288" y="103" angle="80" identifier="W4SmXf2yOk"/>
  <guideline x="534" y="175" angle="80" identifier="mFiHDrxU2w"/>
  <anchor x="273.0" y="513" name="top"/>
  <anchor x="468.0" y="-10" name="right"/>
  <anchor x="308.0" y="0" name="bottom"/>
  <outline>
    <contour>
      <point x="438" y="-11" type="curve" smooth="yes" identifier="sVDA3ARc7e"/>
      <point x="493" y="-11" identifier="m93VEVoN0a"/>
      <point x="535" y="4" identifier="hRiKK53TkP"/>
      <point x="559" y="24" type="curve" identifier="jndSNzSbqF"/>
      <point x="571" y="93" type="line" identifier="6U67ssqog7"/>
      <point x="565" y="91" identifier="cAHfY4Vf5F"/>
      <point x="560" y="90" identifier="ifCzv4pSPa"/>
      <point x="553" y="90" type="curve" smooth="yes" identifier="x0QFv5GpUv"/>
      <point x="538" y="90" identifier="kKtdds4Y4z"/>
      <point x="533" y="95" identifier="0Cv2Gxi5dG"/>
      <point x="533" y="111" type="curve" smooth="yes" identifier="HhOKZZ6KgU"/>
      <point x="533" y="126" identifier="G22HRmoIYh"/>
      <point x="536" y="147" identifier="Hf6i1Bpj6B"/>
      <point x="541" y="175" type="curve" smooth="yes" identifier="rTWZhEvp5Y"/>
      <point x="602" y="522" type="line" identifier="zZvl5yFDyG"/>
      <point x="448" y="522" type="line" identifier="dvkwwXVt0X"/>
      <point x="373" y="445" type="line" identifier="nQqrUyfLLW"/>
      <point x="355" y="445" type="line" identifier="k6PaOsN3TH"/>
      <point x="295" y="103" type="line" identifier="tYsfKECVVh"/>
      <point x="315" y="117" type="line" identifier="Rt3aL7Tq8X"/>
      <point x="315" y="110" identifier="OpGX1FHFXr"/>
      <point x="314" y="105" identifier="wIy3SrNcsx"/>
      <point x="314" y="99" type="curve" identifier="8cszz8STRR"/>
      <point x="314" y="31" identifier="xdlKEeBjtP"/>
      <point x="360" y="-11" identifier="MZjHmftt3V"/>
    </contour>
    <contour>
      <point x="177" y="-15" type="curve" smooth="yes" identifier="EtOPgmg7sh"/>
      <point x="269" y="-15" identifier="0wzKWs82Zt"/>
      <point x="325" y="38" identifier="zKaupGviev"/>
      <point x="363" y="190" type="curve" identifier="XsTtwyT7ra"/>
      <point x="305" y="132" type="line" identifier="QqhRbx2Zah"/>
      <point x="291" y="99" identifier="vU7uRqEofk"/>
      <point x="276" y="89" identifier="ZDljuNoMR3"/>
      <point x="266" y="89" type="curve" smooth="yes" identifier="J8WspeaSVO"/>
      <point x="247" y="89" identifier="x9mlScukwL"/>
      <point x="240" y="97" identifier="NxPTKZ2DH6"/>
      <point x="240" y="151" type="curve" smooth="yes" identifier="N80b9DYIZj"/>
      <point x="240" y="250" identifier="BLdvjBayXU"/>
      <point x="278" y="439" identifier="lVrCfn4sRf"/>
      <point x="329" y="439" type="curve" smooth="yes" identifier="oZ1NtnKloR"/>
      <point x="352" y="439" identifier="NPAB78cfkJ"/>
      <point x="369" y="416" identifier="c3R0CxxHkX"/>
      <point x="366" y="339" type="curve" identifier="gKFSsT0d8z"/>
      <point x="467" y="286" type="line" identifier="DsNuC1ZZ1U"/>
      <point x="477" y="417" identifier="Vsi5fvpCCX"/>
      <point x="433" y="523" identifier="kr3jhIXrks"/>
      <point x="310" y="523" type="curve" smooth="yes" identifier="Q4VakKMKaO"/>
      <point x="119" y="523" identifier="HZZe3BJWS3"/>
      <point x="20" y="363" identifier="hiQlJd7ySJ"/>
      <point x="17" y="185" type="curve" smooth="yes" identifier="9lEebYx9jB"/>
      <point x="15" y="58" identifier="KKAI5odQZW"/>
      <point x="74" y="-15" identifier="j5T5Rw0XaY"/>
    </contour>
  </outline>
</glyph>
<glyph name="c" format="2">
  <advance width="506"/>
  <unicode hex="0063"/>
  <anchor x="269.0" y="513" name="top"/>
  <anchor x="280.0" y="0" name="bottom"/>
  <anchor x="322.0" y="325" identifier="wRBb8d0mr2"/>
  <outline>
    <contour>
      <point x="326" y="523" type="curve" smooth="yes" identifier="JaU4u4pHqD"/>
      <point x="123" y="523" identifier="G0pcEDWv4g"/>
      <point x="16" y="369" identifier="PvPG03EE0P"/>
      <point x="16" y="209" type="curve" smooth="yes" identifier="BrwnX2hKVV"/>
      <point x="16" y="90" identifier="Rl7l6MZ6B1"/>
      <point x="89" y="-14" identifier="i2pz8p7fDx"/>
      <point x="254" y="-14" type="curve" smooth="yes" identifier="FnQjsf3L3t"/>
      <point x="384" y="-14" identifier="ia7FAbMwzz"/>
      <point x="444" y="51" identifier="q8Qj3Ma6lC"/>
      <point x="481" y="144" type="curve" identifier="cWpXXcdJV8"/>
      <point x="412" y="172" type="line" identifier="p0DS8i1pZr"/>
      <point x="386" y="104" identifier="oS0PkvPTyE"/>
      <point x="357" y="82" identifier="UfH2bNnd5g"/>
      <point x="316" y="82" type="curve" smooth="yes" identifier="X63szG4ZMq"/>
      <point x="280" y="82" identifier="ku0YFvdiDs"/>
      <point x="249" y="110" identifier="A5SbRrl5CY"/>
      <point x="249" y="209" type="curve" smooth="yes" identifier="QzUgDKieNH"/>
      <point x="249" y="319" identifier="Ry8byuN3PW"/>
      <point x="276" y="434" identifier="BMX8RTjXwj"/>
      <point x="322" y="434" type="curve" smooth="yes" identifier="oRffjKl7y3"/>
      <point x="337" y="434" identifier="4JfJ6gm5GG"/>
      <point x="349" y="426" identifier="DsSC86NIxu"/>
      <point x="358" y="411" type="curve" identifier="EsDLFmO6Rs"/>
      <point x="376" y="422" identifier="cEaZAKva74"/>
      <point x="379" y="443" identifier="YInkuvD4S8"/>
      <point x="347" y="450" type="curve" identifier="E3pZnGq8OY"/>
      <point x="325" y="325" type="line" identifier="GN8X4C3Yc1"/>
      <point x="484" y="325" type="line" identifier="v5U427nTHs"/>
      <point x="508" y="461" type="line" identifier="E11pt0Ur9q"/>
      <point x="494" y="480" identifier="h053mLvxSk"/>
      <point x="434" y="523" identifier="woeMOGPyzV"/>
    </contour>
  </outline>
</glyph>
<glyph name="e" format="2">
  <advance width="505"/>
  <unicode hex="0065"/>
  <anchor x="285" y="514" name="top"/>
  <anchor x="397" y="2" name="right"/>
  <anchor x="256" y="1" name="bottom"/>
  <outline>
    <contour>
      <point x="252" y="-14" type="curve" smooth="yes"/>
      <point x="374" y="-14"/>
      <point x="441" y="56"/>
      <point x="470" y="137" type="curve"/>
      <point x="404" y="169" type="line"/>
      <point x="373" y="100"/>
      <point x="345" y="83"/>
      <point x="309" y="83" type="curve" smooth="yes"/>
      <point x="262" y="83"/>
      <point x="243" y="105"/>
      <point x="243" y="182" type="curve" smooth="yes"/>
      <point x="243" y="342"/>
      <point x="285" y="436"/>
      <point x="320" y="436" type="curve" smooth="yes"/>
      <point x="337" y="436"/>
      <point x="346" y="427"/>
      <point x="346" y="403" type="curve" smooth="yes"/>
      <point x="346" y="335"/>
      <point x="309" y="276"/>
      <point x="206" y="270" type="curve"/>
      <point x="204" y="210" type="line"/>
      <point x="413" y="220"/>
      <point x="506" y="297"/>
      <point x="506" y="386" type="curve" smooth="yes"/>
      <point x="506" y="464"/>
      <point x="441" y="524"/>
      <point x="330" y="524" type="curve" smooth="yes"/>
      <point x="143" y="524"/>
      <point x="15" y="362"/>
      <point x="15" y="205" type="curve" smooth="yes"/>
      <point x="15" y="74"/>
      <point x="95" y="-14"/>
    </contour>
  </outline>
</glyph>
<glyph name="f" format="2">
  <advance width="424"/>
  <unicode hex="0066"/>
  <guideline x="454" y="513" angle="80" identifier="T1CCOgqXJs"/>
  <guideline x="36" y="515" angle="80" identifier="k62l5IwzPo"/>
  <guideline x="347" y="582" angle="80" identifier="lbtqP6B8hG"/>
  <guideline x="328" y="578" angle="80" identifier="si7IixRr3W"/>
  <guideline x="95" y="555" angle="80" identifier="piVtaTjcqR"/>
  <outline>
    <contour>
      <point x="26" y="513" type="line"/>
      <point x="12" y="433" type="line"/>
      <point x="430" y="433" type="line"/>
      <point x="444" y="513" type="line"/>
    </contour>
    <contour>
      <point x="412" y="659" type="curve" smooth="yes"/>
      <point x="433" y="659"/>
      <point x="454" y="656"/>
      <point x="473" y="651" type="curve"/>
      <point x="487" y="733" type="line"/>
      <point x="472" y="741"/>
      <point x="438" y="748"/>
      <point x="368" y="748" type="curve" smooth="yes"/>
      <point x="224" y="748"/>
      <point x="116" y="691"/>
      <point x="100" y="555" type="curve" smooth="yes"/>
      <point x="10" y="-223" type="line"/>
      <point x="186" y="-223" type="line"/>
      <point x="333" y="578" type="line" smooth="yes"/>
      <point x="343" y="634"/>
      <point x="365" y="659"/>
    </contour>
  </outline>
</glyph>
<glyph name="g" format="2">
  <advance width="582"/>
  <unicode hex="0067"/>
  <guideline x="350" y="446" angle="80" identifier="ZgdCwxb0Qh"/>
  <guideline x="600" y="523" angle="80" identifier="zviP1qRBkP"/>
  <anchor x="275" y="513" name="top"/>
  <outline>
    <contour>
      <point x="172" y="-14" type="curve" smooth="yes"/>
      <point x="247" y="-14"/>
      <point x="284" y="33"/>
      <point x="319" y="118" type="curve"/>
      <point x="303" y="130" type="line"/>
      <point x="287" y="100"/>
      <point x="274" y="90"/>
      <point x="259" y="90" type="curve" smooth="yes"/>
      <point x="243" y="90"/>
      <point x="238" y="100"/>
      <point x="238" y="146" type="curve" smooth="yes"/>
      <point x="238" y="244"/>
      <point x="269" y="440"/>
      <point x="328" y="440" type="curve" smooth="yes"/>
      <point x="351" y="440"/>
      <point x="359" y="421"/>
      <point x="362" y="372" type="curve"/>
      <point x="466" y="287" type="line"/>
      <point x="476" y="418"/>
      <point x="432" y="524"/>
      <point x="309" y="524" type="curve" smooth="yes"/>
      <point x="118" y="524"/>
      <point x="16" y="364"/>
      <point x="16" y="186" type="curve" smooth="yes"/>
      <point x="16" y="60"/>
      <point x="72" y="-14"/>
    </contour>
    <contour>
      <point x="278" y="17" type="line" smooth="yes"/>
      <point x="257" y="-104"/>
      <point x="249" y="-151"/>
      <point x="190" y="-151" type="curve" smooth="yes"/>
      <point x="136" y="-151"/>
      <point x="112" y="-122"/>
      <point x="99" y="-89" type="curve"/>
      <point x="78" y="-121"/>
      <point x="70" y="-168"/>
      <point x="118" y="-170" type="curve"/>
      <point x="140" y="-45" type="line"/>
      <point x="-14" y="-45" type="line"/>
      <point x="-34" y="-161" type="line"/>
      <point x="6" y="-192"/>
      <point x="79" y="-236"/>
      <point x="212" y="-236" type="curve" smooth="yes"/>
      <point x="392" y="-236"/>
      <point x="479" y="-160"/>
      <point x="506" y="-11" type="curve" smooth="yes"/>
      <point x="602" y="523" type="line"/>
      <point x="447" y="523" type="line"/>
      <point x="372" y="446" type="line"/>
      <point x="354" y="446" type="line"/>
    </contour>
  </outline>
</glyph>
<glyph name="h" format="2">
  <advance width="603"/>
  <unicode hex="0068"/>
  <guideline x="224" y="0" angle="80" identifier="glM43MeQvt"/>
  <guideline x="-9" y="0" angle="80" identifier="AzYBaUoNZA"/>
  <anchor x="308.0" y="755" name="top"/>
  <anchor x="298.0" y="0" name="bottom"/>
  <outline>
    <contour>
      <point x="-9" y="0" type="line"/>
      <point x="102" y="629" type="line" smooth="yes"/>
      <point x="105" y="647"/>
      <point x="101" y="655"/>
      <point x="89" y="658" type="curve" smooth="yes"/>
      <point x="82" y="660" type="line"/>
      <point x="94" y="735" type="line"/>
      <point x="352" y="735" type="line"/>
      <point x="224" y="0" type="line"/>
    </contour>
    <contour>
      <point x="543" y="168" type="line" smooth="yes"/>
      <point x="538" y="142"/>
      <point x="535" y="126"/>
      <point x="535" y="111" type="curve" smooth="yes"/>
      <point x="535" y="95"/>
      <point x="541" y="90"/>
      <point x="557" y="90" type="curve" smooth="yes"/>
      <point x="564" y="90"/>
      <point x="569" y="91"/>
      <point x="575" y="93" type="curve"/>
      <point x="563" y="24" type="line"/>
      <point x="539" y="4"/>
      <point x="494" y="-11"/>
      <point x="442" y="-11" type="curve" smooth="yes"/>
      <point x="348" y="-11"/>
      <point x="304" y="27"/>
      <point x="304" y="112" type="curve" smooth="yes"/>
      <point x="304" y="135"/>
      <point x="307" y="161"/>
      <point x="313" y="191" type="curve" smooth="yes"/>
      <point x="340" y="325" type="line" smooth="yes"/>
      <point x="345" y="349"/>
      <point x="347" y="369"/>
      <point x="347" y="378" type="curve" smooth="yes"/>
      <point x="347" y="392"/>
      <point x="342" y="397"/>
      <point x="332" y="397" type="curve" smooth="yes"/>
      <point x="313" y="397"/>
      <point x="295" y="379"/>
      <point x="274" y="327" type="curve"/>
      <point x="266" y="370" type="line"/>
      <point x="310" y="466"/>
      <point x="364" y="523"/>
      <point x="453" y="523" type="curve" smooth="yes"/>
      <point x="530" y="523"/>
      <point x="581" y="484"/>
      <point x="581" y="403" type="curve" smooth="yes"/>
      <point x="581" y="383"/>
      <point x="581" y="356"/>
      <point x="567" y="286" type="curve" smooth="yes"/>
    </contour>
  </outline>
</glyph>
<glyph name="k" format="2">
  <advance width="614"/>
  <unicode hex="006B"/>
  <guideline x="477" y="377" angle="277.31552530439626" identifier="MAOtyUpCHQ"/>
  <anchor x="306" y="0" name="bottom"/>
  <outline>
    <contour>
      <point x="522" y="170" type="line" smooth="yes"/>
      <point x="536" y="101"/>
      <point x="545" y="93"/>
      <point x="567" y="93" type="curve" smooth="yes"/>
      <point x="576" y="93"/>
      <point x="581" y="94"/>
      <point x="586" y="96" type="curve"/>
      <point x="573" y="13" type="line"/>
      <point x="553" y="2"/>
      <point x="509" y="-10"/>
      <point x="450" y="-10" type="curve"/>
      <point x="360" y="-10"/>
      <point x="321" y="24"/>
      <point x="311" y="101" type="curve" smooth="yes"/>
      <point x="290" y="260" type="line"/>
      <point x="290" y="273" type="line"/>
      <point x="352" y="354"/>
      <point x="415" y="434"/>
      <point x="476" y="514" type="curve"/>
      <point x="624" y="514" type="line"/>
      <point x="624" y="502" type="line"/>
      <point x="543" y="429"/>
      <point x="461" y="353"/>
      <point x="379" y="279" type="curve"/>
      <point x="480" y="380" type="line"/>
    </contour>
    <contour>
      <point x="0" y="0" type="line"/>
      <point x="111" y="629" type="line" smooth="yes"/>
      <point x="114" y="647"/>
      <point x="110" y="655"/>
      <point x="98" y="658" type="curve" smooth="yes"/>
      <point x="91" y="660" type="line"/>
      <point x="104" y="735" type="line"/>
      <point x="363" y="735" type="line"/>
      <point x="234" y="0" type="line"/>
    </contour>
  </outline>
</glyph>
<glyph name="l" format="2">
  <advance width="307"/>
  <unicode hex="006C"/>
  <anchor x="160" y="746" name="top"/>
  <anchor x="277" y="735" name="right"/>
  <anchor x="339" y="391" name="mid"/>
  <anchor x="163" y="0" name="bottom"/>
  <outline>
    <contour>
      <point x="248" y="204" type="curve" smooth="yes"/>
      <point x="342" y="735" type="line"/>
      <point x="79" y="735" type="line"/>
      <point x="67" y="660" type="line"/>
      <point x="76" y="658" type="line" smooth="yes"/>
      <point x="88" y="655"/>
      <point x="92" y="647"/>
      <point x="89" y="629" type="curve" smooth="yes"/>
      <point x="19" y="235" type="line" smooth="yes"/>
      <point x="9" y="176"/>
      <point x="4" y="145"/>
      <point x="4" y="116" type="curve" smooth="yes"/>
      <point x="4" y="32"/>
      <point x="62" y="-11"/>
      <point x="141" y="-11" type="curve" smooth="yes"/>
      <point x="196" y="-11"/>
      <point x="242" y="5"/>
      <point x="266" y="23" type="curve"/>
      <point x="278" y="96" type="line"/>
      <point x="274" y="93"/>
      <point x="266" y="90"/>
      <point x="255" y="90" type="curve" smooth="yes"/>
      <point x="241" y="90"/>
      <point x="235" y="95"/>
      <point x="235" y="113" type="curve" smooth="yes"/>
      <point x="235" y="130"/>
      <point x="240" y="161"/>
    </contour>
  </outline>
</glyph>
<glyph name="o" format="2">
  <advance width="578"/>
  <unicode hex="006F"/>
  <guideline x="288.0" y="254.0" angle="315.0" identifier="dgw4Ekuz0M"/>
  <anchor x="288" y="513" name="top"/>
  <anchor x="404" y="0" name="right"/>
  <anchor x="288" y="0" name="bottom"/>
  <outline>
    <contour>
      <point x="19" y="228" type="curve"/>
      <point x="19" y="99"/>
      <point x="100" y="-14"/>
      <point x="280" y="-14" type="curve" smooth="yes"/>
      <point x="462" y="-14"/>
      <point x="559" y="110"/>
      <point x="559" y="281" type="curve"/>
      <point x="559" y="410"/>
      <point x="478" y="523"/>
      <point x="298" y="523" type="curve" smooth="yes"/>
      <point x="116" y="523"/>
      <point x="19" y="399"/>
    </contour>
    <contour>
      <point x="325" y="223" type="curve"/>
      <point x="310" y="100"/>
      <point x="294" y="73"/>
      <point x="270" y="73" type="curve" smooth="yes"/>
      <point x="250" y="73"/>
      <point x="242" y="89"/>
      <point x="242" y="131" type="curve" smooth="yes"/>
      <point x="242" y="164"/>
      <point x="245" y="212"/>
      <point x="254" y="285" type="curve"/>
      <point x="269" y="408"/>
      <point x="284" y="435"/>
      <point x="309" y="435" type="curve" smooth="yes"/>
      <point x="328" y="435"/>
      <point x="337" y="419"/>
      <point x="337" y="377" type="curve" smooth="yes"/>
      <point x="337" y="345"/>
      <point x="334" y="296"/>
    </contour>
  </outline>
</glyph>
<glyph name="v" format="2">
  <advance width="501"/>
  <unicode hex="0076"/>
  <guideline x="22" y="488" angle="80" identifier="5NKFyPWSDU"/>
  <guideline x="513" y="516" angle="80" identifier="fXFQ6hxLGr"/>
  <outline>
    <contour>
      <point x="266" y="513" type="line"/>
      <point x="294" y="66" type="line"/>
      <point x="268" y="65" type="line"/>
      <point x="309" y="214"/>
      <point x="348" y="364"/>
      <point x="388" y="513" type="curve"/>
      <point x="530" y="513" type="line"/>
      <point x="530" y="501" type="line"/>
      <point x="456" y="334"/>
      <point x="383" y="167"/>
      <point x="309" y="0" type="curve"/>
      <point x="83" y="0" type="line"/>
      <point x="45" y="407" type="line" smooth="yes"/>
      <point x="44" y="425"/>
      <point x="38" y="430"/>
      <point x="25" y="436" type="curve" smooth="yes"/>
      <point x="18" y="438" type="line"/>
      <point x="31" y="513" type="line"/>
    </contour>
  </outline>
</glyph>
<glyph name="section" format="2">
  <advance width="582"/>
  <unicode hex="00A7"/>
  <guideline x="381" y="623.0" angle="80" identifier="R6HAKmYAuy"/>
  <outline>
    <contour>
      <point x="209" y="-236" type="curve" smooth="yes"/>
      <point x="355" y="-236"/>
      <point x="458" y="-152"/>
      <point x="458" y="-33" type="curve" smooth="yes"/>
      <point x="458" y="57"/>
      <point x="397" y="118"/>
      <point x="331" y="171" type="curve" smooth="yes"/>
      <point x="275" y="220"/>
      <point x="212" y="249"/>
      <point x="214" y="298" type="curve" smooth="yes"/>
      <point x="215" y="346"/>
      <point x="262" y="366"/>
      <point x="313" y="364" type="curve"/>
      <point x="207" y="409" type="line"/>
      <point x="86" y="409"/>
      <point x="25" y="345"/>
      <point x="23" y="255" type="curve" smooth="yes"/>
      <point x="20" y="158"/>
      <point x="76" y="108"/>
      <point x="142" y="54" type="curve" smooth="yes"/>
      <point x="198" y="9"/>
      <point x="267" y="-20"/>
      <point x="267" y="-74" type="curve" smooth="yes"/>
      <point x="267" y="-120"/>
      <point x="244" y="-143"/>
      <point x="204" y="-143" type="curve" smooth="yes"/>
      <point x="165" y="-143"/>
      <point x="139" y="-122"/>
      <point x="132" y="-61" type="curve"/>
      <point x="124" y="-71"/>
      <point x="118" y="-122"/>
      <point x="146" y="-136" type="curve"/>
      <point x="164" y="-32" type="line"/>
      <point x="-5" y="-32" type="line"/>
      <point x="-24" y="-142" type="line"/>
      <point x="13" y="-190"/>
      <point x="94" y="-236"/>
    </contour>
    <contour>
      <point x="346" y="79" type="line"/>
      <point x="497" y="80"/>
      <point x="564" y="150"/>
      <point x="564" y="251" type="curve" smooth="yes"/>
      <point x="564" y="342"/>
      <point x="509" y="392"/>
      <point x="440" y="448" type="curve" smooth="yes"/>
      <point x="388" y="491"/>
      <point x="332" y="520"/>
      <point x="332" y="569" type="curve" smooth="yes"/>
      <point x="332" y="608"/>
      <point x="346" y="628"/>
      <point x="379" y="628" type="curve" smooth="yes"/>
      <point x="407" y="628"/>
      <point x="421" y="611"/>
      <point x="429" y="571" type="curve"/>
      <point x="458" y="597"/>
      <point x="429" y="622"/>
      <point x="411" y="623" type="curve"/>
      <point x="396" y="539" type="line"/>
      <point x="565" y="539" type="line"/>
      <point x="582" y="635" type="line"/>
      <point x="562" y="668"/>
      <point x="500" y="720"/>
      <point x="378" y="720" type="curve" smooth="yes"/>
      <point x="215" y="720"/>
      <point x="140" y="632"/>
      <point x="140" y="525" type="curve" smooth="yes"/>
      <point x="140" y="438"/>
      <point x="190" y="379"/>
      <point x="250" y="331" type="curve" smooth="yes"/>
      <point x="310" y="282"/>
      <point x="372" y="246"/>
      <point x="371" y="200" type="curve" smooth="yes"/>
      <point x="369" y="151"/>
      <point x="320" y="137"/>
      <point x="290" y="132" type="curve"/>
    </contour>
  </outline>
</glyph>
<glyph name="dieresis" format="2">
  <advance width="421"/>
  <unicode hex="00A8"/>
  <anchor x="212" y="526" name="_top"/>
  <outline>
    <contour>
      <point x="83" y="564" type="curve" smooth="yes"/>
      <point x="155" y="564"/>
      <point x="195" y="602"/>
      <point x="195" y="661" type="curve" smooth="yes"/>
      <point x="195" y="715"/>
      <point x="160" y="748"/>
      <point x="95" y="748" type="curve" smooth="yes"/>
      <point x="23" y="748"/>
      <point x="-17" y="710"/>
      <point x="-17" y="651" type="curve" smooth="yes"/>
      <point x="-17" y="598"/>
      <point x="18" y="564"/>
    </contour>
    <contour>
      <point x="304" y="564" type="curve" smooth="yes"/>
      <point x="376" y="564"/>
      <point x="416" y="602"/>
      <point x="416" y="661" type="curve" smooth="yes"/>
      <point x="416" y="715"/>
      <point x="382" y="748"/>
      <point x="317" y="748" type="curve" smooth="yes"/>
      <point x="245" y="748"/>
      <point x="205" y="710"/>
      <point x="205" y="651" type="curve" smooth="yes"/>
      <point x="205" y="598"/>
      <point x="240" y="564"/>
    </contour>
  </outline>
</glyph>
<glyph name="Tbar" format="2">
  <advance width="598"/>
  <unicode hex="0166"/>
  <guideline x="347" y="291" angle="0" identifier="oWDYskPY7j"/>
  <guideline x="78" y="356" angle="80" identifier="Scyj7jdaYa"/>
  <guideline x="571" y="356" angle="80" identifier="L3fPd2r56y"/>
  <outline>
    <contour>
      <point x="68" y="356" type="line"/>
      <point x="52" y="263" type="line"/>
      <point x="544" y="263" type="line"/>
      <point x="561" y="356" type="line"/>
    </contour>
    <component base="T"/>
  </outline>
</glyph>
<glyph name="at.uc" format="2">
  <advance width="836"/>
  <outline>
    <contour>
      <point x="342" y="117" type="curve" smooth="yes"/>
      <point x="401" y="117"/>
      <point x="447" y="145"/>
      <point x="477" y="222" type="curve"/>
      <point x="450" y="274" type="line"/>
      <point x="433" y="212"/>
      <point x="423" y="197"/>
      <point x="406" y="197" type="curve" smooth="yes"/>
      <point x="389" y="197"/>
      <point x="386" y="216"/>
      <point x="386" y="257" type="curve" smooth="yes"/>
      <point x="386" y="327"/>
      <point x="421" y="468"/>
      <point x="464" y="468" type="curve" smooth="yes"/>
      <point x="487" y="468"/>
      <point x="488" y="447"/>
      <point x="495" y="383" type="curve"/>
      <point x="533" y="437" type="line"/>
      <point x="528" y="509"/>
      <point x="501" y="548"/>
      <point x="416" y="548" type="curve" smooth="yes"/>
      <point x="293" y="548"/>
      <point x="211" y="399"/>
      <point x="211" y="281" type="curve" smooth="yes"/>
      <point x="211" y="186"/>
      <point x="270" y="117"/>
    </contour>
    <contour>
      <point x="415" y="-62" type="curve" smooth="yes"/>
      <point x="512" y="-62"/>
      <point x="593" y="-42"/>
      <point x="649" y="-10" type="curve"/>
      <point x="643" y="73" type="line"/>
      <point x="582" y="41"/>
      <point x="503" y="23"/>
      <point x="415" y="23" type="curve" smooth="yes"/>
      <point x="243" y="23"/>
      <point x="147" y="119"/>
      <point x="147" y="293" type="curve" smooth="yes"/>
      <point x="147" y="496"/>
      <point x="277" y="648"/>
      <point x="484" y="648" type="curve" smooth="yes"/>
      <point x="644" y="648"/>
      <point x="729" y="565"/>
      <point x="729" y="429" type="curve" smooth="yes"/>
      <point x="729" y="299"/>
      <point x="670" y="197"/>
      <point x="629" y="197" type="curve" smooth="yes"/>
      <point x="618" y="197"/>
      <point x="612" y="204"/>
      <point x="612" y="218" type="curve" smooth="yes"/>
      <point x="612" y="231"/>
      <point x="613" y="238"/>
      <point x="618" y="258" type="curve" smooth="yes"/>
      <point x="685" y="542" type="line"/>
      <point x="543" y="542" type="line"/>
      <point x="503" y="474" type="line"/>
      <point x="489" y="454" type="line"/>
      <point x="435" y="226" type="line"/>
      <point x="459" y="226" type="line"/>
      <point x="460" y="156"/>
      <point x="507" y="117"/>
      <point x="596" y="117" type="curve" smooth="yes"/>
      <point x="730" y="117"/>
      <point x="826" y="258"/>
      <point x="826" y="429" type="curve" smooth="yes"/>
      <point x="826" y="621"/>
      <point x="694" y="733"/>
      <point x="484" y="733" type="curve" smooth="yes"/>
      <point x="234" y="733"/>
      <point x="50" y="548"/>
      <point x="50" y="293" type="curve" smooth="yes"/>
      <point x="50" y="73"/>
      <point x="189" y="-62"/>
    </contour>
  </outline>
</glyph>
<glyph name="blackcircle" format="2">
  <advance width="498"/>
  <outline>
    <contour>
      <point x="249" y="80" type="curve" smooth="yes"/>
      <point x="355" y="80"/>
      <point x="439" y="177"/>
      <point x="439" y="304" type="curve" smooth="yes"/>
      <point x="439" y="431"/>
      <point x="355" y="528"/>
      <point x="249" y="528" type="curve" smooth="yes"/>
      <point x="143" y="528"/>
      <point x="59" y="431"/>
      <point x="59" y="304" type="curve" smooth="yes"/>
      <point x="59" y="177"/>
      <point x="143" y="80"/>
    </contour>
  </outline>
</glyph>
<glyph name="blackrightpointingtriangle" format="2">
  <advance width="716"/>
  <outline>
    <contour>
      <point x="343" y="10" type="line"/>
      <point x="657" y="277" type="line"/>
      <point x="343" y="545" type="line"/>
    </contour>
  </outline>
</glyph>
<glyph name="braceleft.uc" format="2">
  <advance width="323"/>
  <outline>
    <contour>
      <point x="15" y="76" type="curve" smooth="yes"/>
      <point x="15" y="-30"/>
      <point x="118" y="-60"/>
      <point x="237" y="-61" type="curve"/>
      <point x="237" y="-61" type="line"/>
      <point x="269" y="19" type="line"/>
      <point x="269" y="19" type="line"/>
      <point x="226" y="23"/>
      <point x="201" y="40"/>
      <point x="201" y="79" type="curve" smooth="yes"/>
      <point x="201" y="139"/>
      <point x="274" y="201"/>
      <point x="274" y="267" type="curve" smooth="yes"/>
      <point x="274" y="304"/>
      <point x="262" y="337"/>
      <point x="169" y="349" type="curve"/>
      <point x="170" y="354" type="line"/>
      <point x="275.6590071367155" y="365.17547190869107"/>
      <point x="296.0" y="398.0"/>
      <point x="296" y="445" type="curve" smooth="yes"/>
      <point x="296.0" y="492.0"/>
      <point x="269.0" y="552.0"/>
      <point x="269" y="600" type="curve" smooth="yes"/>
      <point x="269" y="651"/>
      <point x="305" y="677"/>
      <point x="345" y="678" type="curve" smooth="yes"/>
      <point x="346" y="678"/>
      <point x="348" y="678"/>
      <point x="349" y="678" type="curve"/>
      <point x="346" y="757" type="line"/>
      <point x="317" y="759"/>
      <point x="289" y="761"/>
      <point x="262" y="761" type="curve" smooth="yes"/>
      <point x="170" y="761"/>
      <point x="82" y="727"/>
      <point x="82" y="628" type="curve" smooth="yes"/>
      <point x="82.0" y="562.0"/>
      <point x="132" y="496"/>
      <point x="163" y="408" type="curve"/>
      <point x="168" y="439" type="line"/>
      <point x="34" y="397" type="line"/>
      <point x="21" y="323" type="line"/>
      <point x="140" y="273" type="line"/>
      <point x="143" y="305" type="line"/>
      <point x="66" y="205"/>
      <point x="15" y="165"/>
    </contour>
  </outline>
</glyph>
<glyph name="three.old" format="2">
  <advance width="471"/>
  <outline>
    <contour>
      <point x="229" y="225" type="line"/>
      <point x="378" y="223"/>
      <point x="433" y="310"/>
      <point x="433" y="382" type="curve" smooth="yes"/>
      <point x="433" y="480"/>
      <point x="343" y="558"/>
      <point x="206" y="558" type="curve" smooth="yes"/>
      <point x="139" y="558"/>
      <point x="60" y="531"/>
      <point x="16" y="496" type="curve"/>
      <point x="-5" y="303" type="line"/>
      <point x="165" y="303" type="line"/>
      <point x="164" y="406" type="line"/>
      <point x="74" y="404"/>
      <point x="85" y="396"/>
      <point x="78" y="365" type="curve"/>
      <point x="109" y="408"/>
      <point x="161" y="438"/>
      <point x="193" y="438" type="curve" smooth="yes"/>
      <point x="236" y="438"/>
      <point x="237" y="406"/>
      <point x="237" y="382" type="curve" smooth="yes"/>
      <point x="237" y="321"/>
      <point x="234" y="284"/>
      <point x="165" y="284" type="curve" smooth="yes"/>
      <point x="96" y="284" type="line"/>
      <point x="76" y="170" type="line"/>
      <point x="114" y="170" type="line" smooth="yes"/>
      <point x="243" y="170"/>
      <point x="228" y="130"/>
      <point x="228" y="73" type="curve" smooth="yes"/>
      <point x="228" y="26"/>
      <point x="225" y="-27"/>
      <point x="169" y="-27" type="curve" smooth="yes"/>
      <point x="109" y="-27"/>
      <point x="48" y="51"/>
      <point x="16" y="123" type="curve"/>
      <point x="-88" y="36" type="line"/>
      <point x="-46" y="-71"/>
      <point x="42" y="-147"/>
      <point x="169" y="-147" type="curve" smooth="yes"/>
      <point x="317" y="-147"/>
      <point x="428" y="-90"/>
      <point x="428" y="46" type="curve" smooth="yes"/>
      <point x="428" y="158"/>
      <point x="361" y="222"/>
      <point x="187" y="235" type="curve"/>
      <point x="265" y="212" type="line"/>
      <point x="280" y="252" type="line"/>
    </contour>
  </outline>
</glyph>
